<svg id="visual" viewBox="0 0 1920 1080" width="1920" height="1080" xmlns="http://www.w3.org/2000/svg" xmlns:xlink="http://www.w3.org/1999/xlink" version="1.1"><rect x="0" y="0" width="1920" height="1080" fill="#151515"></rect><path d="M0 497L106.7 485C213.3 473 426.7 449 640 455C853.3 461 1066.7 497 1280 510C1493.3 523 1706.7 513 1813.3 508L1920 503L1920 1081L1813.3 1081C1706.7 1081 1493.3 1081 1280 1081C1066.7 1081 853.3 1081 640 1081C426.7 1081 213.3 1081 106.7 1081L0 1081Z" fill="#3ecf8e"></path><path d="M0 744L106.7 733C213.3 722 426.7 700 640 663.8C853.3 627.7 1066.7 577.3 1280 591.2C1493.3 605 1706.7 683 1813.3 722L1920 761L1920 1081L1813.3 1081C1706.7 1081 1493.3 1081 1280 1081C1066.7 1081 853.3 1081 640 1081C426.7 1081 213.3 1081 106.7 1081L0 1081Z" fill="#32b97c"></path><path d="M0 738L106.7 740.2C213.3 742.3 426.7 746.7 640 765.2C853.3 783.7 1066.7 816.3 1280 838.3C1493.3 860.3 1706.7 871.7 1813.3 877.3L1920 883L1920 1081L1813.3 1081C1706.7 1081 1493.3 1081 1280 1081C1066.7 1081 853.3 1081 640 1081C426.7 1081 213.3 1081 106.7 1081L0 1081Z" fill="#26a46a"></path><path d="M0 845L106.7 858.7C213.3 872.3 426.7 899.7 640 911.5C853.3 923.3 1066.7 919.7 1280 911.8C1493.3 904 1706.7 892 1813.3 886L1920 880L1920 1081L1813.3 1081C1706.7 1081 1493.3 1081 1280 1081C1066.7 1081 853.3 1081 640 1081C426.7 1081 213.3 1081 106.7 1081L0 1081Z" fill="#188f59"></path></svg>